<?xml version="1.0" encoding="UTF-8"?>
<svg xmlns="http://www.w3.org/2000/svg" xmlns:xlink="http://www.w3.org/1999/xlink" width="600pt" height="599.999999pt" viewBox="0 0 600 599.999999" version="1.2">
<defs>
<clipPath id="clip1">
  <path d="M 10.382812 213 L 589 213 L 589 595.5 L 10.382812 595.5 Z M 10.382812 213 "/>
</clipPath>
</defs>
<g id="surface1">
<g clip-path="url(#clip1)" clip-rule="nonzero">
<path style=" stroke:none;fill-rule:nonzero;fill:rgb(100%,100%,100%);fill-opacity:1;" d="M 445.976562 213.757812 C 443.238281 213.757812 438.828125 216.550781 436.375 217.5 C 428.5625 220.515625 420.753906 223.527344 412.941406 226.542969 C 368.542969 243.671875 324.136719 260.804688 279.734375 277.9375 C 258.871094 285.992188 238.007812 294.042969 217.136719 302.09375 C 172.953125 319.148438 128.773438 336.199219 84.589844 353.25 C 78.640625 355.546875 72.6875 357.839844 66.734375 360.136719 C 65.898438 360.460938 64.125 360.769531 63.464844 361.402344 C 61.261719 363.5 62.878906 365.628906 63.652344 368.25 C 65.132812 373.253906 65.878906 378.464844 65.886719 383.679688 C 65.914062 402.621094 55.558594 420.757812 39.386719 430.558594 C 30.722656 435.8125 20.410156 438.789062 10.992188 442.425781 L 14.535156 451.605469 C 15.058594 451.503906 15.566406 451.449219 16.058594 451.449219 C 22.933594 451.449219 26.195312 461.304688 19.761719 465.148438 L 20.722656 467.644531 C 21.25 467.535156 21.761719 467.484375 22.25 467.484375 C 29.128906 467.484375 32.367188 477.367188 25.941406 481.1875 L 26.898438 483.675781 C 27.425781 483.566406 27.933594 483.515625 28.425781 483.515625 C 35.292969 483.519531 38.554688 493.402344 32.125 497.21875 L 33.082031 499.703125 C 33.605469 499.597656 34.113281 499.546875 34.601562 499.546875 C 41.480469 499.546875 44.738281 509.425781 38.3125 513.253906 L 39.269531 515.738281 C 39.789062 515.632812 40.296875 515.582031 40.78125 515.582031 C 47.65625 515.582031 50.933594 525.460938 44.492188 529.28125 L 45.457031 531.773438 C 45.976562 531.667969 46.484375 531.617188 46.972656 531.617188 C 53.847656 531.617188 57.113281 541.476562 50.679688 545.316406 L 51.640625 547.804688 C 52.164062 547.699219 52.664062 547.652344 53.152344 547.652344 C 60.039062 547.652344 63.304688 557.527344 56.867188 561.351562 L 60.410156 570.53125 C 73.34375 565.542969 86.289062 559.207031 100.371094 559.207031 C 101.183594 559.207031 102 559.230469 102.820312 559.273438 C 114.085938 559.875 125.015625 564.078125 133.863281 571.066406 C 138.015625 574.34375 141.703125 578.214844 144.753906 582.542969 C 146.21875 584.625 150.5 595.492188 152.851562 595.492188 C 153.394531 595.492188 153.8125 595.234375 154.308594 595.074219 C 174.523438 588.554688 194.261719 579.652344 214.070312 572.015625 C 253.191406 556.917969 292.316406 541.816406 331.445312 526.71875 C 372.394531 510.917969 413.339844 495.117188 454.292969 479.316406 C 479.714844 469.503906 505.140625 459.695312 530.5625 449.882812 C 532.074219 449.300781 534.765625 448.835938 536.023438 447.78125 C 538.816406 445.433594 536.242188 441.867188 535.441406 438.683594 C 533.191406 429.730469 533.273438 420.253906 535.675781 411.34375 C 539.933594 395.558594 551.277344 382.164062 566.183594 375.453125 C 573.507812 372.15625 581.203125 369.566406 588.695312 366.675781 L 585.15625 357.496094 C 584.636719 357.601562 584.128906 357.648438 583.644531 357.648438 C 576.765625 357.648438 573.488281 347.773438 579.933594 343.953125 L 578.972656 341.460938 C 578.449219 341.566406 577.949219 341.613281 577.460938 341.613281 C 570.582031 341.613281 567.308594 331.742188 573.746094 327.914062 L 572.789062 325.425781 C 572.265625 325.53125 571.761719 325.578125 571.273438 325.578125 C 564.390625 325.578125 561.117188 315.707031 567.5625 311.878906 L 566.601562 309.390625 C 566.078125 309.496094 565.570312 309.546875 565.078125 309.546875 C 558.207031 309.546875 554.945312 299.683594 561.375 295.847656 L 560.417969 293.359375 C 559.890625 293.46875 559.378906 293.515625 558.890625 293.515625 C 552.023438 293.515625 548.765625 283.628906 555.191406 279.8125 L 554.230469 277.332031 C 553.710938 277.4375 553.203125 277.484375 552.714844 277.484375 C 545.839844 277.484375 542.574219 267.625 549.003906 263.78125 L 548.046875 261.296875 C 547.527344 261.402344 547.023438 261.449219 546.535156 261.449219 C 539.660156 261.449219 536.378906 251.597656 542.820312 247.753906 L 539.277344 238.5625 C 534.988281 240.21875 530.703125 241.875 526.410156 243.53125 C 517.082031 247.136719 507.808594 249.644531 498.382812 249.644531 C 492.445312 249.644531 486.445312 248.648438 480.335938 246.296875 C 471.628906 242.953125 463.808594 237.410156 457.800781 230.265625 C 454.765625 226.648438 452.183594 222.660156 450.175781 218.386719 C 449.027344 215.941406 448.949219 213.824219 446.0625 213.761719 C 446.035156 213.757812 446.003906 213.757812 445.976562 213.757812 Z M 445.65625 217.71875 C 445.742188 217.921875 445.832031 218.15625 445.90625 218.351562 C 446.105469 218.859375 446.332031 219.429688 446.625 220.058594 C 448.753906 224.585938 451.5 228.871094 454.792969 232.789062 C 461.207031 240.421875 469.550781 246.359375 478.929688 249.960938 C 485.238281 252.390625 491.605469 253.570312 498.382812 253.570312 C 507.207031 253.570312 516.5625 251.546875 527.824219 247.191406 L 534.257812 244.707031 L 537.027344 243.640625 L 538.152344 246.558594 C 535.695312 249.300781 534.796875 253.09375 535.855469 256.933594 C 536.890625 260.679688 539.519531 263.515625 542.847656 264.726562 C 541.5625 267.15625 541.238281 270.054688 542.042969 272.980469 C 543.078125 276.71875 545.703125 279.550781 549.023438 280.761719 C 547.75 283.179688 547.425781 286.070312 548.226562 288.988281 C 549.261719 292.742188 551.886719 295.582031 555.210938 296.796875 C 553.933594 299.21875 553.609375 302.113281 554.414062 305.035156 C 555.445312 308.78125 558.070312 311.613281 561.394531 312.824219 C 560.117188 315.242188 559.789062 318.128906 560.589844 321.046875 C 561.617188 324.800781 564.25 327.644531 567.582031 328.859375 C 566.304688 331.273438 565.980469 334.164062 566.78125 337.082031 C 567.808594 340.832031 570.4375 343.671875 573.769531 344.890625 C 572.488281 347.308594 572.160156 350.195312 572.957031 353.113281 C 574.242188 357.785156 577.996094 361.042969 582.5 361.515625 L 583.613281 364.402344 C 582.523438 364.8125 581.433594 365.214844 580.363281 365.609375 C 575.152344 367.539062 569.761719 369.535156 564.574219 371.867188 C 548.664062 379.039062 536.445312 393.410156 531.886719 410.324219 C 529.304688 419.898438 529.21875 430.035156 531.636719 439.640625 C 531.890625 440.65625 532.246094 441.59375 532.589844 442.5 C 532.851562 443.1875 533.257812 444.265625 533.347656 444.84375 C 532.835938 445.089844 531.765625 445.402344 531.15625 445.582031 C 530.480469 445.777344 529.78125 445.980469 529.152344 446.222656 L 491.015625 460.9375 L 452.878906 475.65625 L 330.03125 523.058594 L 212.65625 568.347656 C 206.03125 570.90625 199.316406 573.640625 192.820312 576.285156 C 180.0625 581.488281 166.878906 586.859375 153.738281 591.132812 C 152.640625 589.464844 151.097656 586.308594 150.273438 584.613281 C 149.199219 582.414062 148.5625 581.128906 147.960938 580.28125 C 144.707031 575.667969 140.785156 571.527344 136.292969 567.984375 C 126.789062 560.476562 114.972656 555.992188 103.03125 555.351562 C 102.152344 555.308594 101.257812 555.28125 100.371094 555.28125 C 87.847656 555.28125 76.402344 559.890625 65.332031 564.351562 C 64.449219 564.707031 63.550781 565.070312 62.648438 565.429688 L 61.535156 562.546875 C 63.992188 559.816406 64.890625 556.027344 63.835938 552.183594 C 62.808594 548.429688 60.175781 545.585938 56.84375 544.371094 C 58.125 541.949219 58.449219 539.054688 57.644531 536.132812 C 56.613281 532.386719 53.984375 529.554688 50.660156 528.339844 C 51.9375 525.921875 52.261719 523.035156 51.460938 520.121094 C 50.429688 516.367188 47.800781 513.523438 44.472656 512.308594 C 45.75 509.882812 46.074219 506.992188 45.273438 504.070312 C 44.242188 500.324219 41.617188 497.488281 38.289062 496.273438 C 39.566406 493.851562 39.890625 490.964844 39.089844 488.050781 C 38.058594 484.292969 35.433594 481.453125 32.105469 480.238281 C 33.386719 477.816406 33.710938 474.925781 32.910156 472.003906 C 31.878906 468.253906 29.253906 465.414062 25.921875 464.203125 C 27.203125 461.773438 27.527344 458.882812 26.726562 455.960938 C 25.441406 451.304688 21.6875 448.058594 17.191406 447.582031 L 16.082031 444.710938 C 17.253906 444.28125 18.445312 443.851562 19.667969 443.414062 C 27.027344 440.769531 34.632812 438.035156 41.421875 433.917969 C 58.960938 423.285156 69.839844 404.03125 69.8125 383.675781 C 69.804688 378.050781 69 372.488281 67.417969 367.136719 C 67.210938 366.4375 66.972656 365.804688 66.757812 365.246094 C 66.652344 364.964844 66.523438 364.625 66.425781 364.335938 C 66.574219 364.289062 66.714844 364.25 66.835938 364.214844 C 67.273438 364.09375 67.722656 363.964844 68.144531 363.800781 L 86.003906 356.910156 L 168.117188 325.21875 L 218.550781 305.757812 L 281.148438 281.601562 L 414.355469 230.203125 L 437.789062 221.160156 C 438.714844 220.804688 439.746094 220.289062 440.839844 219.746094 C 442.160156 219.09375 444.503906 217.933594 445.65625 217.71875 "/>
</g>
<path style=" stroke:none;fill-rule:nonzero;fill:rgb(100%,100%,100%);fill-opacity:1;" d="M 326.777344 401.691406 L 343.847656 445.921875 L 333.347656 449.972656 L 317.320312 436.554688 C 312.867188 432.84375 307.78125 428.246094 303.613281 423.898438 L 303.445312 424.039062 C 305.957031 429.777344 308.496094 435.964844 311.28125 443.183594 L 316.414062 456.507812 L 307.230469 460.046875 L 290.171875 415.816406 L 301.855469 411.308594 L 317.289062 423.976562 C 321.707031 427.628906 326.464844 432.128906 330.351562 436.351562 L 330.546875 436.269531 C 327.640625 430.6875 325.140625 424.792969 322.589844 418.164062 L 317.59375 405.234375 L 326.777344 401.691406 "/>
<path style=" stroke:none;fill-rule:nonzero;fill:rgb(100%,100%,100%);fill-opacity:1;" d="M 212.042969 396.289062 L 205.664062 387.964844 C 203.863281 385.644531 201.816406 382.664062 200.144531 380.292969 L 200.007812 380.34375 C 200.371094 383.222656 201.007812 386.820312 201.273438 389.660156 L 202.261719 400.058594 Z M 204.148438 370.148438 L 234.921875 409.097656 L 224.15625 413.25 L 216.371094 403.207031 L 203.707031 408.097656 L 204.9375 420.664062 L 194.566406 424.667969 L 191.03125 375.214844 L 204.148438 370.148438 "/>
<path style=" stroke:none;fill-rule:nonzero;fill:rgb(100%,100%,100%);fill-opacity:1;" d="M 334.984375 319.667969 L 352.039062 363.902344 L 342.007812 367.769531 L 324.945312 323.539062 L 334.984375 319.667969 "/>
<path style=" stroke:none;fill-rule:nonzero;fill:rgb(100%,100%,100%);fill-opacity:1;" d="M 365.449219 317.558594 L 379.273438 353.390625 L 369.234375 357.265625 L 355.417969 321.433594 L 343.539062 326.015625 L 340.296875 317.621094 L 374.28125 304.496094 L 377.523438 312.902344 L 365.449219 317.558594 "/>
<path style=" stroke:none;fill-rule:nonzero;fill:rgb(100%,100%,100%);fill-opacity:1;" d="M 276.695312 463.542969 C 283.453125 460.933594 284.84375 453.011719 281.519531 444.414062 C 278.460938 436.46875 272.023438 431.113281 265.136719 433.773438 C 258.378906 436.382812 256.917969 444.328125 260.238281 452.925781 C 263.574219 461.589844 269.996094 466.128906 276.695312 463.542969 Z M 291.960938 440.011719 C 297.558594 454.511719 292.160156 466.699219 279.226562 471.683594 C 266.113281 476.75 254.609375 469.800781 249.75 457.199219 C 244.632812 443.945312 249.277344 430.769531 262.332031 425.734375 C 275.914062 420.492188 287.253906 427.800781 291.960938 440.011719 "/>
<path style=" stroke:none;fill-rule:nonzero;fill:rgb(100%,100%,100%);fill-opacity:1;" d="M 377.554688 423.492188 L 380.71875 431.695312 L 352.503906 442.578125 L 335.445312 398.34375 L 362.742188 387.816406 L 365.902344 396.023438 L 348.652344 402.683594 L 352.191406 411.867188 L 368.464844 405.585938 L 371.605469 413.722656 L 355.332031 420.003906 L 359.382812 430.5 L 377.554688 423.492188 "/>
<path style=" stroke:none;fill-rule:nonzero;fill:rgb(100%,100%,100%);fill-opacity:1;" d="M 251.507812 394.246094 C 260.589844 390.824219 264.570312 383.550781 260.496094 372.992188 C 257.019531 363.773438 249.765625 360.996094 241.171875 364.316406 C 238.941406 365.171875 237.566406 365.925781 236.789062 366.453125 L 247.949219 395.394531 C 248.886719 395.261719 250.261719 394.734375 251.507812 394.246094 Z M 271.003906 368.554688 C 274.269531 377.027344 273.433594 384.054688 270.5625 389.308594 C 267.398438 394.976562 261.015625 399.558594 252.359375 402.894531 C 247.175781 404.894531 243.375 405.984375 240.753906 406.613281 L 223.992188 363.175781 C 227.4375 361.167969 232.101562 358.992188 237.15625 357.035156 C 245.558594 353.804688 251.578125 353.207031 257.089844 354.777344 C 262.996094 356.417969 267.988281 360.75 271.003906 368.554688 "/>
<path style=" stroke:none;fill-rule:nonzero;fill:rgb(100%,100%,100%);fill-opacity:1;" d="M 314.839844 327.445312 L 334.332031 370.738281 L 324.550781 374.507812 L 317.367188 357.832031 C 315.121094 352.589844 312.445312 346.234375 309.953125 339.800781 L 309.757812 339.882812 C 310.558594 346.050781 311.15625 353.0625 311.449219 358.90625 L 312.726562 378.246094 L 304.914062 381.25 L 293.585938 365.949219 C 290.140625 361.324219 286.207031 355.609375 282.925781 350.234375 L 282.792969 350.285156 C 284.832031 356.359375 287.273438 363.257812 289.074219 368.898438 L 294.765625 386.003906 L 285.507812 389.574219 L 271.277344 344.253906 L 284.589844 339.113281 L 294.613281 352.207031 C 297.96875 356.792969 301.476562 361.773438 304.457031 366.578125 L 304.65625 366.507812 C 303.925781 360.902344 303.179688 354.476562 302.726562 349.003906 L 301.785156 332.476562 L 314.839844 327.445312 "/>
<path style=" stroke:none;fill-rule:nonzero;fill:rgb(100%,100%,100%);fill-opacity:1;" d="M 113.867188 383.710938 L 103.582031 385.777344 L 99.453125 395.417969 L 94.3125 386.277344 L 83.871094 385.335938 L 90.976562 377.617188 L 88.644531 367.386719 L 98.171875 371.757812 L 107.1875 366.382812 L 105.96875 376.800781 L 113.867188 383.710938 "/>
<path style=" stroke:none;fill-rule:nonzero;fill:rgb(100%,100%,100%);fill-opacity:1;" d="M 182.730469 562.25 L 172.445312 564.316406 L 168.324219 573.957031 L 163.183594 564.816406 L 152.734375 563.875 L 159.839844 556.15625 L 157.507812 545.925781 L 167.046875 550.300781 L 176.050781 544.921875 L 174.839844 555.339844 L 182.730469 562.25 "/>
<path style=" stroke:none;fill-rule:nonzero;fill:rgb(100%,100%,100%);fill-opacity:1;" d="M 515.816406 423.761719 L 508.710938 431.484375 L 511.042969 441.710938 L 501.515625 437.339844 L 492.5 442.71875 L 493.71875 432.300781 L 485.820312 425.390625 L 496.105469 423.324219 L 500.226562 413.679688 L 505.375 422.820312 L 515.816406 423.761719 "/>
<path style=" stroke:none;fill-rule:nonzero;fill:rgb(100%,100%,100%);fill-opacity:1;" d="M 446.953125 245.222656 L 439.847656 252.941406 L 442.179688 263.171875 L 432.640625 258.800781 L 423.636719 264.179688 L 424.847656 253.761719 L 416.957031 246.851562 L 427.242188 244.785156 L 431.363281 235.140625 L 436.503906 244.28125 L 446.953125 245.222656 "/>
<path style=" stroke:none;fill-rule:nonzero;fill:rgb(100%,100%,100%);fill-opacity:1;" d="M 129.785156 455.972656 L 133.671875 466.039062 L 130.15625 467.398438 L 127.425781 460.304688 L 124.457031 461 C 124.667969 461.367188 124.792969 461.714844 124.964844 462.160156 C 125.644531 463.902344 125.933594 465.828125 125.503906 467.476562 C 125.109375 469.210938 123.914062 470.640625 121.78125 471.464844 C 118.371094 472.785156 114.234375 471.015625 112.335938 466.09375 C 111.484375 463.875 111.269531 461.820312 111.417969 460.605469 L 114.910156 460.128906 C 114.832031 461.089844 114.964844 462.945312 115.609375 464.609375 C 116.292969 466.375 117.863281 467.941406 119.800781 467.195312 C 121.6875 466.460938 122.269531 464.523438 120.855469 460.875 C 120.460938 459.859375 120.140625 459.175781 119.730469 458.460938 L 129.785156 455.972656 "/>
<path style=" stroke:none;fill-rule:nonzero;fill:rgb(100%,100%,100%);fill-opacity:1;" d="M 141.085938 485.246094 L 146.0625 498.160156 L 143.363281 499.199219 L 124.875 497.671875 L 123.128906 493.144531 L 140.738281 495.003906 L 140.800781 494.988281 L 137.566406 486.605469 L 141.085938 485.246094 "/>
<path style=" stroke:none;fill-rule:nonzero;fill:rgb(100%,100%,100%);fill-opacity:1;" d="M 111.371094 435.355469 C 115.414062 433.789062 117.21875 432.09375 116.5625 430.375 C 115.949219 428.804688 113.535156 428.503906 109.304688 430.171875 C 105.105469 431.765625 103.496094 433.546875 104.140625 435.203125 C 104.777344 436.859375 107.210938 436.964844 111.371094 435.355469 Z M 119.8125 429.1875 C 121.699219 434.082031 118.074219 437.675781 113.074219 439.609375 C 107.421875 441.792969 102.664062 441.007812 100.859375 436.335938 C 99.039062 431.617188 102.484375 427.894531 107.644531 425.867188 C 112.933594 423.828125 117.988281 424.460938 119.8125 429.1875 "/>
<path style=" stroke:none;fill-rule:nonzero;fill:rgb(100%,100%,100%);fill-opacity:1;" d="M 138.421875 514.707031 C 140.113281 514.054688 141.226562 512.59375 140.519531 510.765625 C 140.070312 509.613281 139.003906 508.925781 137.914062 508.863281 C 137.644531 508.839844 137.285156 508.910156 136.78125 509.109375 C 134.875 509.941406 133.484375 511.539062 134.230469 513.480469 C 134.820312 515.007812 136.570312 515.429688 138.421875 514.707031 Z M 151.785156 512.234375 L 148.488281 513.503906 C 148.339844 513.019531 148.109375 512.523438 147.796875 511.871094 C 146.023438 508.1875 143.433594 507.253906 141.109375 507.597656 L 141.140625 507.683594 C 142.417969 508.226562 143.4375 509.289062 144.097656 511 C 145.285156 514.0625 144.113281 517.484375 140.3125 518.953125 C 136.691406 520.351562 132.640625 518.71875 131.109375 514.753906 C 129.230469 509.882812 131.941406 506.097656 136.296875 504.414062 C 139.726562 503.09375 143.082031 503.25 145.667969 504.515625 C 148.03125 505.699219 149.84375 507.71875 151.09375 510.527344 C 151.457031 511.296875 151.640625 511.800781 151.785156 512.234375 "/>
<path style=" stroke:none;fill-rule:nonzero;fill:rgb(100%,100%,100%);fill-opacity:1;" d="M 135.0625 469.640625 L 140.042969 482.550781 L 137.339844 483.589844 L 118.851562 482.066406 L 117.109375 477.535156 L 134.71875 479.394531 L 134.777344 479.382812 L 131.546875 470.996094 L 135.0625 469.640625 "/>
<path style=" stroke:none;fill-rule:nonzero;fill:rgb(100%,100%,100%);fill-opacity:1;" d="M 125.648438 444.320312 C 127.246094 448.453125 125.707031 451.664062 122.382812 452.941406 C 119.324219 454.128906 116.019531 452.847656 112.636719 451.121094 L 110.578125 449.972656 L 110.523438 449.996094 L 113.175781 456.882812 L 109.667969 458.242188 L 104.664062 445.28125 L 107.25 444.28125 L 110.304688 445.820312 C 115.414062 448.4375 118.214844 449.578125 120.367188 448.8125 C 121.859375 448.238281 122.699219 446.878906 121.882812 444.765625 C 121.277344 443.195312 119.957031 442.121094 118.851562 441.445312 L 121.453125 439.058594 C 123.027344 440.03125 124.691406 441.847656 125.648438 444.320312 "/>
<path style=" stroke:none;fill-rule:nonzero;fill:rgb(100%,100%,100%);fill-opacity:1;" d="M 167.226562 517.140625 L 125.988281 410.21875 L 83.605469 426.574219 L 124.851562 533.511719 Z M 171.371094 515.742188 C 172.203125 517.894531 171.128906 520.320312 168.976562 521.152344 L 126.246094 537.644531 C 124.09375 538.46875 121.667969 537.390625 120.839844 535.238281 L 79.457031 427.972656 C 78.632812 425.820312 79.710938 423.394531 81.859375 422.5625 L 124.59375 406.070312 C 126.742188 405.25 129.167969 406.324219 130 408.476562 L 171.371094 515.742188 "/>
<path style=" stroke:none;fill-rule:nonzero;fill:rgb(100%,100%,100%);fill-opacity:1;" d="M 474.9375 271.179688 C 474.4375 271.179688 473.933594 271.269531 473.4375 271.457031 L 430.710938 287.945312 C 428.558594 288.777344 427.484375 291.203125 428.316406 293.359375 L 469.6875 400.625 C 470.328125 402.285156 471.921875 403.304688 473.605469 403.304688 C 474.101562 403.304688 474.605469 403.214844 475.09375 403.027344 L 517.828125 386.535156 C 519.988281 385.707031 521.054688 383.277344 520.230469 381.128906 L 478.847656 273.859375 C 478.207031 272.199219 476.621094 271.179688 474.9375 271.179688 Z M 474.9375 275.105469 C 474.945312 275.105469 475.121094 275.109375 475.1875 275.273438 L 516.566406 382.535156 C 516.617188 382.664062 516.546875 382.820312 516.414062 382.875 L 473.691406 399.359375 C 473.660156 399.371094 473.632812 399.378906 473.605469 399.378906 C 473.539062 399.378906 473.398438 399.34375 473.351562 399.210938 L 431.976562 291.941406 C 431.925781 291.8125 431.996094 291.660156 432.125 291.609375 L 474.839844 275.125 C 474.875 275.113281 474.90625 275.105469 474.9375 275.105469 "/>
<path style=" stroke:none;fill-rule:nonzero;fill:rgb(100%,100%,100%);fill-opacity:1;" d="M 487.28125 380.089844 C 488.96875 379.4375 490.082031 377.980469 489.375 376.148438 C 488.929688 374.996094 487.863281 374.3125 486.769531 374.25 C 486.503906 374.226562 486.140625 374.296875 485.632812 374.492188 C 483.726562 375.324219 482.34375 376.925781 483.089844 378.867188 C 483.679688 380.378906 485.421875 380.8125 487.28125 380.089844 Z M 500.632812 377.617188 L 497.34375 378.890625 C 497.1875 378.402344 496.96875 377.910156 496.648438 377.253906 C 494.878906 373.574219 492.28125 372.640625 489.964844 372.984375 L 490 373.0625 C 491.269531 373.605469 492.296875 374.664062 492.953125 376.382812 C 494.132812 379.449219 492.972656 382.871094 489.175781 384.335938 C 485.546875 385.734375 481.496094 384.105469 479.964844 380.136719 C 478.089844 375.269531 480.785156 371.476562 485.144531 369.796875 C 488.585938 368.476562 491.9375 368.632812 494.523438 369.898438 C 496.890625 371.082031 498.703125 373.101562 499.945312 375.914062 C 500.304688 376.679688 500.5 377.183594 500.632812 377.617188 "/>
<path style=" stroke:none;fill-rule:nonzero;fill:rgb(100%,100%,100%);fill-opacity:1;" d="M 489.933594 350.628906 L 494.917969 363.539062 L 492.21875 364.582031 L 473.730469 363.058594 L 471.980469 358.53125 L 489.597656 360.386719 L 489.652344 360.375 L 486.417969 351.988281 L 489.933594 350.628906 "/>
<path style=" stroke:none;fill-rule:nonzero;fill:rgb(100%,100%,100%);fill-opacity:1;" d="M 483.914062 335.019531 L 488.898438 347.9375 L 486.195312 348.972656 L 467.707031 347.449219 L 465.960938 342.917969 L 483.574219 344.78125 L 483.628906 344.765625 L 480.402344 336.378906 L 483.914062 335.019531 "/>
<path style=" stroke:none;fill-rule:nonzero;fill:rgb(100%,100%,100%);fill-opacity:1;" d="M 478.644531 321.347656 L 482.523438 331.425781 L 479.015625 332.78125 L 476.273438 325.691406 L 473.316406 326.382812 C 473.519531 326.753906 473.652344 327.085938 473.824219 327.542969 C 474.5 329.285156 474.792969 331.210938 474.359375 332.859375 C 473.964844 334.597656 472.765625 336.027344 470.628906 336.851562 C 467.234375 338.167969 463.09375 336.402344 461.195312 331.476562 C 460.339844 329.257812 460.128906 327.207031 460.269531 325.988281 L 463.765625 325.511719 C 463.691406 326.476562 463.824219 328.332031 464.464844 329.996094 C 465.148438 331.761719 466.71875 333.324219 468.660156 332.570312 C 470.542969 331.847656 471.125 329.90625 469.710938 326.257812 C 469.316406 325.246094 468.988281 324.558594 468.589844 323.847656 L 478.644531 321.347656 "/>
<path style=" stroke:none;fill-rule:nonzero;fill:rgb(100%,100%,100%);fill-opacity:1;" d="M 474.5 309.707031 C 476.101562 313.835938 474.554688 317.046875 471.242188 318.324219 C 468.175781 319.511719 464.878906 318.234375 461.492188 316.507812 L 459.433594 315.359375 L 459.382812 315.378906 L 462.035156 322.269531 L 458.515625 323.625 L 453.515625 310.664062 L 456.105469 309.65625 L 459.152344 311.195312 C 464.265625 313.808594 467.066406 314.964844 469.226562 314.195312 C 470.714844 313.621094 471.550781 312.265625 470.742188 310.152344 C 470.128906 308.582031 468.808594 307.507812 467.707031 306.832031 L 470.308594 304.4375 C 471.878906 305.417969 473.550781 307.230469 474.5 309.707031 "/>
<path style=" stroke:none;fill-rule:nonzero;fill:rgb(100%,100%,100%);fill-opacity:1;" d="M 460.21875 300.738281 C 464.269531 299.175781 466.078125 297.480469 465.40625 295.757812 C 464.804688 294.1875 462.394531 293.890625 458.164062 295.554688 C 453.953125 297.144531 452.355469 298.925781 452.988281 300.585938 C 453.632812 302.246094 456.058594 302.347656 460.21875 300.738281 Z M 468.667969 294.574219 C 470.550781 299.46875 466.933594 303.0625 461.933594 304.996094 C 456.277344 307.175781 451.511719 306.390625 449.714844 301.71875 C 447.894531 297 451.335938 293.277344 456.5 291.253906 C 461.789062 289.210938 466.847656 289.847656 468.667969 294.574219 "/>
<path style=" stroke:none;fill-rule:nonzero;fill:rgb(100%,100%,100%);fill-opacity:1;" d="M 389.59375 276.726562 L 147.515625 370.140625 L 210.09375 532.375 L 452.171875 438.960938 Z M 387.34375 281.800781 L 447.097656 436.710938 L 212.34375 527.300781 L 152.589844 372.390625 L 387.34375 281.800781 "/>
<path style=" stroke:none;fill-rule:nonzero;fill:rgb(100%,100%,100%);fill-opacity:1;" d="M 231.160156 193.210938 L 272.59375 216.234375 L 267.371094 225.636719 L 225.933594 202.617188 L 231.160156 193.210938 "/>
<path style=" stroke:none;fill-rule:nonzero;fill:rgb(100%,100%,100%);fill-opacity:1;" d="M 253.199219 172.0625 L 286.769531 190.714844 L 281.542969 200.121094 L 247.980469 181.46875 L 241.796875 192.597656 L 233.925781 188.230469 L 251.613281 156.375 L 259.484375 160.746094 L 253.199219 172.0625 "/>
<path style=" stroke:none;fill-rule:nonzero;fill:rgb(100%,100%,100%);fill-opacity:1;" d="M 220.675781 212.089844 L 263.378906 232.835938 L 258.285156 241.996094 L 242.085938 233.796875 C 237.007812 231.214844 230.875 228.050781 224.84375 224.707031 L 224.746094 224.894531 C 229.3125 229.117188 234.265625 234.121094 238.230469 238.417969 L 251.601562 252.445312 L 247.535156 259.757812 L 229.03125 255.273438 C 223.421875 253.929688 216.742188 252.0625 210.78125 250.042969 L 210.707031 250.164062 C 216.167969 253.519531 222.460938 257.25 227.457031 260.429688 L 242.785156 269.910156 L 237.964844 278.589844 L 198.003906 252.917969 L 204.929688 240.433594 L 221.015625 244.066406 C 226.527344 245.4375 232.414062 247.007812 237.78125 248.785156 L 237.886719 248.605469 C 233.734375 244.769531 229.046875 240.316406 225.191406 236.40625 L 213.878906 224.320312 L 220.675781 212.089844 "/>
<path style=" stroke:none;fill-rule:nonzero;fill:rgb(100%,100%,100%);fill-opacity:1;" d="M 436.679688 157.222656 L 436.167969 167.699219 L 444.515625 174.0625 L 434.394531 176.8125 L 430.925781 186.71875 L 425.179688 177.9375 L 414.691406 177.695312 L 421.265625 169.519531 L 418.25 159.472656 L 428.058594 163.191406 L 436.679688 157.222656 "/>
<path style=" stroke:none;fill-rule:nonzero;fill:rgb(100%,100%,100%);fill-opacity:1;" d="M 269.425781 64.292969 L 268.917969 74.773438 L 277.261719 81.132812 L 267.136719 83.890625 L 263.671875 93.785156 L 257.921875 85.015625 L 247.4375 84.765625 L 254.011719 76.589844 L 251 66.546875 L 260.804688 70.265625 L 269.425781 64.292969 "/>
<path style=" stroke:none;fill-rule:nonzero;fill:rgb(100%,100%,100%);fill-opacity:1;" d="M 307.539062 66.28125 C 307.15625 66.601562 306.828125 66.996094 306.570312 67.453125 L 284.328125 107.503906 C 283.210938 109.519531 283.941406 112.070312 285.957031 113.191406 L 386.441406 169.023438 C 387.996094 169.886719 389.871094 169.648438 391.164062 168.570312 C 391.542969 168.253906 391.875 167.859375 392.132812 167.398438 L 414.375 127.355469 C 415.496094 125.332031 414.761719 122.785156 412.75 121.660156 L 312.261719 65.835938 C 310.707031 64.96875 308.832031 65.207031 307.539062 66.28125 Z M 310.054688 69.296875 C 310.0625 69.292969 310.199219 69.179688 310.355469 69.265625 L 410.839844 125.089844 C 410.964844 125.160156 411.011719 125.324219 410.941406 125.449219 L 388.703125 165.484375 C 388.6875 165.515625 388.671875 165.539062 388.648438 165.554688 C 388.597656 165.597656 388.472656 165.660156 388.34375 165.589844 L 287.859375 109.753906 C 287.738281 109.691406 287.695312 109.527344 287.761719 109.40625 L 309.992188 69.375 C 310.007812 69.34375 310.03125 69.316406 310.054688 69.296875 "/>
<path style=" stroke:none;fill-rule:nonzero;fill:rgb(100%,100%,100%);fill-opacity:1;" d="M 386.792969 141.984375 C 387.671875 140.402344 387.589844 138.566406 385.875 137.613281 C 384.792969 137.015625 383.535156 137.175781 382.65625 137.824219 C 382.4375 137.980469 382.207031 138.265625 381.9375 138.742188 C 381.007812 140.605469 380.972656 142.722656 382.789062 143.730469 C 384.210938 144.515625 385.824219 143.730469 386.792969 141.984375 Z M 395.460938 131.527344 L 393.75 134.609375 C 393.316406 134.339844 392.832031 134.097656 392.164062 133.804688 C 388.449219 132.113281 385.855469 133.058594 384.300781 134.808594 L 384.375 134.847656 C 385.699219 134.449219 387.167969 134.601562 388.773438 135.5 C 391.640625 137.097656 392.941406 140.46875 390.964844 144.035156 C 389.074219 147.429688 384.917969 148.773438 381.207031 146.707031 C 376.644531 144.175781 376.289062 139.53125 378.554688 135.449219 C 380.351562 132.234375 383.027344 130.203125 385.824219 129.515625 C 388.398438 128.914062 391.082031 129.300781 393.835938 130.660156 C 394.605469 131.019531 395.078125 131.28125 395.460938 131.527344 "/>
<path style=" stroke:none;fill-rule:nonzero;fill:rgb(100%,100%,100%);fill-opacity:1;" d="M 369.953125 117.664062 L 382.050781 124.382812 L 380.648438 126.914062 L 365.476562 137.59375 L 361.230469 135.238281 L 375.945312 125.375 L 375.980469 125.328125 L 368.125 120.960938 L 369.953125 117.664062 "/>
<path style=" stroke:none;fill-rule:nonzero;fill:rgb(100%,100%,100%);fill-opacity:1;" d="M 355.332031 109.542969 L 367.433594 116.261719 L 366.023438 118.789062 L 350.851562 129.46875 L 346.609375 127.113281 L 361.324219 117.25 L 361.355469 117.203125 L 353.503906 112.835938 L 355.332031 109.542969 "/>
<path style=" stroke:none;fill-rule:nonzero;fill:rgb(100%,100%,100%);fill-opacity:1;" d="M 342.527344 102.421875 L 351.960938 107.671875 L 350.136719 110.964844 L 343.488281 107.277344 L 341.664062 109.703125 C 342.054688 109.855469 342.375 110.03125 342.796875 110.265625 C 344.433594 111.175781 345.886719 112.464844 346.613281 114.003906 C 347.421875 115.589844 347.417969 117.460938 346.304688 119.460938 C 344.542969 122.652344 340.234375 123.945312 335.621094 121.386719 C 333.539062 120.226562 332.0625 118.789062 331.394531 117.761719 L 333.773438 115.152344 C 334.332031 115.945312 335.621094 117.28125 337.183594 118.148438 C 338.839844 119.066406 341.046875 119.261719 342.050781 117.4375 C 343.035156 115.675781 342.238281 113.8125 338.8125 111.917969 C 337.863281 111.390625 337.171875 111.078125 336.40625 110.785156 L 342.527344 102.421875 "/>
<path style=" stroke:none;fill-rule:nonzero;fill:rgb(100%,100%,100%);fill-opacity:1;" d="M 331.886719 96.140625 C 335.761719 98.285156 336.628906 101.738281 334.90625 104.847656 C 333.3125 107.722656 329.960938 108.855469 326.257812 109.695312 L 323.941406 110.136719 L 323.917969 110.191406 L 330.367188 113.777344 L 328.535156 117.074219 L 316.390625 110.324219 L 317.734375 107.894531 L 321.058594 107.121094 C 326.65625 105.851562 329.550781 104.941406 330.710938 102.96875 C 331.492188 101.570312 331.261719 99.996094 329.285156 98.894531 C 327.8125 98.082031 326.109375 98.097656 324.832031 98.285156 L 325.292969 94.78125 C 327.128906 94.527344 329.570312 94.851562 331.886719 96.140625 "/>
<path style=" stroke:none;fill-rule:nonzero;fill:rgb(100%,100%,100%);fill-opacity:1;" d="M 315.175781 98.410156 C 317.285156 94.613281 317.585938 92.152344 315.972656 91.257812 C 314.5 90.441406 312.460938 91.757812 310.277344 95.746094 C 308.066406 99.664062 307.976562 102.054688 309.53125 102.925781 C 311.089844 103.785156 313.015625 102.308594 315.175781 98.410156 Z M 317.714844 88.261719 C 322.292969 90.808594 321.820312 95.890625 319.21875 100.578125 C 316.277344 105.878906 312.117188 108.328125 307.742188 105.894531 C 303.320312 103.4375 303.578125 98.378906 306.242188 93.511719 C 308.996094 88.550781 313.289062 85.800781 317.714844 88.261719 "/>
<path style=" stroke:none;fill-rule:nonzero;fill:rgb(100%,100%,100%);fill-opacity:1;" d="M 78.113281 355.746094 L 106.617188 304.421875 L 132.867188 257.15625 L 165.445312 198.488281 L 234.777344 73.652344 L 246.972656 51.695312 C 247.457031 50.828125 247.921875 49.773438 248.414062 48.652344 C 249.007812 47.304688 250.0625 44.910156 250.808594 44.007812 C 251.003906 44.109375 251.222656 44.230469 251.410156 44.332031 C 251.886719 44.59375 252.421875 44.890625 253.050781 45.183594 C 257.585938 47.296875 262.445312 48.824219 267.480469 49.71875 C 277.292969 51.46875 287.503906 50.679688 297.011719 47.4375 C 303.414062 45.253906 309.054688 42.082031 314.257812 37.738281 C 321.03125 32.082031 326.914062 24.527344 332.777344 13.972656 L 336.125 7.941406 L 337.566406 5.34375 L 340.296875 6.863281 C 340.167969 10.546875 341.90625 14.03125 345.179688 16.304688 C 348.375 18.515625 352.207031 19.007812 355.542969 17.804688 C 356.113281 20.492188 357.71875 22.925781 360.210938 24.652344 C 363.402344 26.859375 367.230469 27.351562 370.554688 26.15625 C 371.128906 28.828125 372.730469 31.253906 375.21875 32.980469 C 378.414062 35.203125 382.25 35.699219 385.582031 34.496094 C 386.148438 37.179688 387.753906 39.609375 390.242188 41.335938 C 393.433594 43.550781 397.265625 44.042969 400.597656 42.84375 C 401.164062 45.519531 402.761719 47.945312 405.246094 49.667969 C 408.441406 51.890625 412.28125 52.386719 415.617188 51.183594 C 416.183594 53.859375 417.785156 56.285156 420.269531 58.011719 C 423.464844 60.230469 427.300781 60.726562 430.636719 59.527344 C 431.203125 62.203125 432.800781 64.628906 435.285156 66.355469 C 439.261719 69.125 444.234375 69.214844 447.992188 66.695312 L 450.695312 68.199219 C 450.121094 69.210938 449.542969 70.214844 448.972656 71.207031 C 446.207031 76.027344 443.351562 81.015625 440.863281 86.132812 C 433.242188 101.832031 433.066406 120.699219 440.40625 136.605469 C 444.558594 145.605469 450.984375 153.445312 458.996094 159.273438 C 459.84375 159.886719 460.714844 160.382812 461.558594 160.855469 C 462.199219 161.214844 463.203125 161.785156 463.644531 162.171875 C 463.410156 162.6875 462.785156 163.613281 462.429688 164.140625 C 462.039062 164.722656 461.632812 165.328125 461.304688 165.917969 L 441.453125 201.65625 L 431.640625 219.324219 C 433.21875 218.71875 434.796875 218.105469 436.375 217.5 C 436.683594 217.378906 437.023438 217.230469 437.390625 217.0625 C 446.503906 200.648438 455.621094 184.234375 464.738281 167.824219 C 465.519531 166.40625 467.289062 164.324219 467.574219 162.707031 C 468.21875 159.113281 463.957031 158.03125 461.304688 156.101562 C 453.839844 150.667969 447.832031 143.339844 443.96875 134.960938 C 437.121094 120.117188 437.25 102.558594 444.394531 87.847656 C 447.902344 80.621094 452.152344 73.707031 456.050781 66.6875 L 447.457031 61.90625 C 447.121094 62.320312 446.765625 62.683594 446.390625 62.996094 C 441.113281 67.402344 432.269531 61.921875 434.765625 54.855469 L 432.4375 53.558594 C 432.101562 53.972656 431.746094 54.332031 431.375 54.644531 C 426.089844 59.058594 417.25 53.574219 419.742188 46.507812 L 417.414062 45.214844 C 417.082031 45.628906 416.726562 45.992188 416.347656 46.304688 C 411.066406 50.714844 402.230469 45.230469 404.722656 38.164062 L 402.394531 36.867188 C 402.054688 37.285156 401.699219 37.652344 401.324219 37.964844 C 396.046875 42.367188 387.222656 36.886719 389.703125 29.820312 L 387.371094 28.527344 C 387.039062 28.941406 386.679688 29.3125 386.300781 29.625 C 381.027344 34.023438 372.191406 28.523438 374.679688 21.472656 L 372.355469 20.183594 C 372.023438 20.601562 371.664062 20.960938 371.289062 21.273438 C 366.011719 25.683594 357.191406 20.203125 359.664062 13.132812 L 357.335938 11.835938 C 357 12.25 356.644531 12.613281 356.273438 12.925781 C 350.992188 17.332031 342.164062 11.871094 344.644531 4.789062 L 336.039062 0.00390625 C 333.808594 4.023438 331.578125 8.046875 329.34375 12.066406 C 324.488281 20.8125 318.980469 28.683594 311.742188 34.722656 C 307.183594 38.527344 301.9375 41.609375 295.742188 43.71875 C 286.910156 46.734375 277.359375 47.492188 268.167969 45.855469 C 263.523438 45.027344 258.988281 43.617188 254.707031 41.621094 C 252.257812 40.484375 250.84375 38.910156 248.589844 40.707031 C 248.5625 40.722656 248.539062 40.746094 248.515625 40.765625 C 246.417969 42.515625 244.820312 47.488281 243.542969 49.789062 C 239.476562 57.109375 235.410156 64.425781 231.34375 71.75 C 208.234375 113.359375 185.125 154.972656 162.011719 196.582031 C 151.152344 216.136719 140.292969 235.695312 129.433594 255.246094 C 110.421875 289.484375 91.410156 323.71875 72.394531 357.953125 C 74.300781 357.21875 76.207031 356.484375 78.113281 355.746094 "/>
<path style=" stroke:none;fill-rule:nonzero;fill:rgb(100%,100%,100%);fill-opacity:1;" d="M 53.984375 404.414062 C 55.972656 405.738281 57.871094 407.203125 59.667969 408.78125 C 60.296875 407.574219 60.875 406.347656 61.414062 405.097656 C 59.738281 403.683594 57.984375 402.359375 56.160156 401.144531 C 55.554688 400.738281 54.960938 400.40625 54.445312 400.113281 C 54.179688 399.964844 53.863281 399.785156 53.605469 399.628906 C 53.691406 399.5 53.773438 399.375 53.84375 399.273438 C 54.097656 398.902344 54.363281 398.511719 54.582031 398.117188 L 59.230469 389.746094 L 63.878906 381.378906 L 65.605469 378.265625 C 65.394531 376.152344 65.0625 374.050781 64.609375 371.972656 C 63.222656 374.472656 61.835938 376.972656 60.445312 379.472656 C 57.347656 385.050781 54.25 390.628906 51.152344 396.210938 C 50.714844 396.992188 49.554688 398.363281 49.449219 399.273438 C 49.101562 402.296875 51.707031 402.894531 53.984375 404.414062 "/>
<path style=" stroke:none;fill-rule:nonzero;fill:rgb(100%,100%,100%);fill-opacity:1;" d="M 134.03125 334.167969 L 247.097656 130.578125 L 392.21875 211.207031 L 375.726562 240.902344 C 377.628906 240.167969 379.535156 239.429688 381.4375 238.695312 L 397.554688 209.679688 L 245.574219 125.242188 L 128.316406 336.371094 C 130.222656 335.640625 132.125 334.902344 134.03125 334.167969 "/>
<path style=" stroke:none;fill-rule:nonzero;fill:rgb(100%,100%,100%);fill-opacity:1;" d="M 175.058594 318.335938 L 163.058594 315.820312 L 158.011719 324.914062 C 163.695312 322.71875 169.375 320.527344 175.058594 318.335938 "/>
<path style=" stroke:none;fill-rule:nonzero;fill:rgb(100%,100%,100%);fill-opacity:1;" d="M 209.273438 305.128906 L 185.75 292.058594 C 186.007812 291.160156 186.578125 289.699219 187.746094 287.613281 C 192.214844 279.554688 199.566406 277.039062 208.140625 281.886719 C 217.550781 287.113281 219.457031 294.722656 215.511719 302.726562 C 216.054688 302.511719 216.59375 302.304688 217.136719 302.09375 C 219.996094 300.992188 222.855469 299.890625 225.710938 298.785156 C 226.707031 294.914062 226.945312 291.273438 226.320312 287.960938 C 225.160156 282.089844 221.296875 276.160156 213.363281 271.75 C 206.046875 267.6875 199.4375 267.5625 193.855469 270.085938 C 188.617188 272.410156 184.378906 276.730469 180.003906 284.597656 C 177.371094 289.339844 175.1875 293.996094 173.828125 297.75 L 196.199219 310.175781 C 200.558594 308.496094 204.914062 306.8125 209.273438 305.128906 "/>
<path style=" stroke:none;fill-rule:nonzero;fill:rgb(100%,100%,100%);fill-opacity:1;" d="M 295.894531 271.703125 L 277.410156 261.4375 L 272.632812 270.042969 L 283.933594 276.320312 C 287.921875 274.78125 291.90625 273.242188 295.894531 271.703125 "/>
<path style=" stroke:none;fill-rule:nonzero;fill:rgb(100%,100%,100%);fill-opacity:1;" d="M 334.125 256.953125 L 338.042969 249.898438 L 330.359375 245.628906 L 321.324219 261.890625 C 325.589844 260.246094 329.859375 258.601562 334.125 256.953125 "/>
<path style=" stroke:none;fill-rule:nonzero;fill:rgb(100%,100%,100%);fill-opacity:1;" d="M 320.257812 262.300781 L 311.0625 257.195312 L 319.53125 241.941406 L 311.910156 237.710938 L 303.441406 252.960938 L 294.835938 248.179688 L 303.816406 232.007812 L 296.132812 227.738281 L 281.921875 253.316406 L 307.183594 267.351562 C 311.539062 265.667969 315.898438 263.984375 320.257812 262.300781 "/>
</g>
</svg>
