<?xml version="1.0" encoding="UTF-8"?>
<svg xmlns="http://www.w3.org/2000/svg" xmlns:xlink="http://www.w3.org/1999/xlink" width="600pt" height="599.999999pt" viewBox="0 0 600 599.999999" version="1.2">
<defs>
<clipPath id="clip1">
  <path d="M 6.089844 6.929688 L 594.089844 6.929688 L 594.089844 594.929688 L 6.089844 594.929688 Z M 6.089844 6.929688 "/>
</clipPath>
</defs>
<g id="surface1">
<g clip-path="url(#clip1)" clip-rule="nonzero">
<path style=" stroke:none;fill-rule:nonzero;fill:rgb(100%,100%,100%);fill-opacity:1;" d="M 300.089844 6.929688 C 137.980469 6.929688 6.089844 138.820312 6.089844 300.929688 C 6.089844 463.042969 137.980469 594.929688 300.089844 594.929688 C 462.203125 594.929688 594.089844 463.042969 594.089844 300.929688 C 594.089844 138.820312 462.203125 6.929688 300.089844 6.929688 Z M 300.089844 575.332031 C 148.785156 575.332031 25.691406 452.234375 25.691406 300.929688 C 25.691406 149.625 148.785156 26.53125 300.089844 26.53125 C 451.394531 26.53125 574.488281 149.625 574.488281 300.929688 C 574.488281 452.234375 451.394531 575.332031 300.089844 575.332031 Z M 300.089844 575.332031 "/>
</g>
<path style=" stroke:none;fill-rule:nonzero;fill:rgb(100%,100%,100%);fill-opacity:1;" d="M 434.351562 218.90625 C 427.695312 210.078125 420.355469 201.703125 412.121094 194.304688 C 411.195312 193.476562 401.875 186.8125 402.304688 188.007812 C 411.878906 214.628906 417.945312 251.125 397.246094 269.820312 C 399.96875 239.3125 375.820312 189.957031 356.800781 166.53125 C 332.277344 136.328125 295.222656 118.796875 260.871094 102.441406 C 256.84375 100.527344 253.277344 105.113281 256.164062 108.542969 C 308.300781 170.433594 248.1875 242.1875 197.847656 280.644531 C 199.550781 279.34375 192.367188 255.898438 191.988281 252.917969 C 190.359375 240.09375 192.351562 228.132812 196.027344 215.882812 C 196.902344 212.96875 202.882812 194.910156 194.539062 201.71875 C 144.378906 242.636719 111.390625 325.792969 123.410156 389.945312 C 131.824219 434.839844 176.589844 464.550781 212.832031 486.871094 C 232.234375 498.8125 216.09375 464.335938 215.171875 461.125 C 205.324219 426.804688 205.105469 390 232.171875 363.566406 C 245.972656 350.085938 251.589844 344.203125 266.96875 319.320312 C 272.320312 336.304688 277.671875 353.289062 283.019531 370.277344 C 283.867188 372.960938 287.441406 374.207031 289.511719 371.992188 C 311.304688 348.65625 323.644531 321.554688 322.957031 289.601562 C 331.269531 300.089844 338.121094 306.207031 342.625 311.644531 C 362.402344 335.492188 374.335938 364.441406 379.921875 395.039062 C 382.527344 409.308594 382.820312 424.183594 379.15625 438.300781 C 373.277344 460.945312 342.386719 495.671875 342.433594 499.730469 C 348.355469 501.878906 439.148438 480.203125 466.441406 415.308594 C 487.75 364.660156 481.113281 304.230469 456.300781 254.546875 C 449.914062 241.726562 442.488281 229.710938 434.351562 218.90625 Z M 434.351562 218.90625 "/>
</g>
</svg>
